<mxfile host="app.diagrams.net" modified="2024-05-02T20:33:38.138Z" agent="Mozilla/5.0 (Windows NT 10.0; Win64; x64) AppleWebKit/537.36 (KHTML, like Gecko) Chrome/124.0.0.0 Safari/537.36 Edg/124.0.0.0" etag="lc5iqdvV21jL7fZMW1Mx" version="24.3.1" type="google">
  <diagram name="PÃ¡gina-1" id="AkaSSvfcnQ7Qk9KbrOoB">
    <mxGraphModel grid="1" page="1" gridSize="10" guides="1" tooltips="1" connect="1" arrows="1" fold="1" pageScale="1" pageWidth="827" pageHeight="1169" math="0" shadow="0">
      <root>
        <mxCell id="0" />
        <mxCell id="1" parent="0" />
        <mxCell id="wdbdzwJytdkCPi4RzAZK-3" value="" style="edgeStyle=orthogonalEdgeStyle;rounded=0;orthogonalLoop=1;jettySize=auto;html=1;" edge="1" parent="1" source="wdbdzwJytdkCPi4RzAZK-1" target="wdbdzwJytdkCPi4RzAZK-2">
          <mxGeometry relative="1" as="geometry" />
        </mxCell>
        <mxCell id="wdbdzwJytdkCPi4RzAZK-1" value="INICIO" style="ellipse;whiteSpace=wrap;html=1;" vertex="1" parent="1">
          <mxGeometry x="340" y="120" width="120" height="80" as="geometry" />
        </mxCell>
        <mxCell id="wdbdzwJytdkCPi4RzAZK-5" value="" style="edgeStyle=orthogonalEdgeStyle;rounded=0;orthogonalLoop=1;jettySize=auto;html=1;" edge="1" parent="1" source="wdbdzwJytdkCPi4RzAZK-2" target="wdbdzwJytdkCPi4RzAZK-4">
          <mxGeometry relative="1" as="geometry" />
        </mxCell>
        <mxCell id="wdbdzwJytdkCPi4RzAZK-2" value="Declarando number" style="whiteSpace=wrap;html=1;" vertex="1" parent="1">
          <mxGeometry x="340" y="230" width="120" height="60" as="geometry" />
        </mxCell>
        <mxCell id="wdbdzwJytdkCPi4RzAZK-7" value="" style="edgeStyle=orthogonalEdgeStyle;rounded=0;orthogonalLoop=1;jettySize=auto;html=1;" edge="1" parent="1" source="wdbdzwJytdkCPi4RzAZK-4" target="wdbdzwJytdkCPi4RzAZK-6">
          <mxGeometry relative="1" as="geometry" />
        </mxCell>
        <mxCell id="wdbdzwJytdkCPi4RzAZK-4" value="INPUT number" style="shape=parallelogram;perimeter=parallelogramPerimeter;whiteSpace=wrap;html=1;fixedSize=1;" vertex="1" parent="1">
          <mxGeometry x="340" y="320" width="120" height="60" as="geometry" />
        </mxCell>
        <mxCell id="wdbdzwJytdkCPi4RzAZK-10" value="" style="edgeStyle=orthogonalEdgeStyle;rounded=0;orthogonalLoop=1;jettySize=auto;html=1;" edge="1" parent="1" source="wdbdzwJytdkCPi4RzAZK-6">
          <mxGeometry relative="1" as="geometry">
            <mxPoint x="500" y="450" as="targetPoint" />
          </mxGeometry>
        </mxCell>
        <mxCell id="wdbdzwJytdkCPi4RzAZK-12" value="" style="edgeStyle=orthogonalEdgeStyle;rounded=0;orthogonalLoop=1;jettySize=auto;html=1;" edge="1" parent="1" source="wdbdzwJytdkCPi4RzAZK-6" target="wdbdzwJytdkCPi4RzAZK-11">
          <mxGeometry relative="1" as="geometry" />
        </mxCell>
        <mxCell id="wdbdzwJytdkCPi4RzAZK-6" value="number==1" style="rhombus;whiteSpace=wrap;html=1;" vertex="1" parent="1">
          <mxGeometry x="355" y="410" width="90" height="80" as="geometry" />
        </mxCell>
        <mxCell id="wdbdzwJytdkCPi4RzAZK-53" value="" style="edgeStyle=orthogonalEdgeStyle;rounded=0;orthogonalLoop=1;jettySize=auto;html=1;" edge="1" parent="1" target="wdbdzwJytdkCPi4RzAZK-52">
          <mxGeometry relative="1" as="geometry">
            <mxPoint x="600" y="450" as="sourcePoint" />
          </mxGeometry>
        </mxCell>
        <mxCell id="wdbdzwJytdkCPi4RzAZK-14" value="" style="edgeStyle=orthogonalEdgeStyle;rounded=0;orthogonalLoop=1;jettySize=auto;html=1;" edge="1" parent="1" source="wdbdzwJytdkCPi4RzAZK-11" target="wdbdzwJytdkCPi4RzAZK-13">
          <mxGeometry relative="1" as="geometry" />
        </mxCell>
        <mxCell id="wdbdzwJytdkCPi4RzAZK-32" value="" style="edgeStyle=orthogonalEdgeStyle;rounded=0;orthogonalLoop=1;jettySize=auto;html=1;" edge="1" parent="1" source="wdbdzwJytdkCPi4RzAZK-11">
          <mxGeometry relative="1" as="geometry">
            <mxPoint x="500" y="560" as="targetPoint" />
          </mxGeometry>
        </mxCell>
        <mxCell id="wdbdzwJytdkCPi4RzAZK-11" value="number==2" style="rhombus;whiteSpace=wrap;html=1;" vertex="1" parent="1">
          <mxGeometry x="355" y="520" width="90" height="80" as="geometry" />
        </mxCell>
        <mxCell id="wdbdzwJytdkCPi4RzAZK-16" value="" style="edgeStyle=orthogonalEdgeStyle;rounded=0;orthogonalLoop=1;jettySize=auto;html=1;" edge="1" parent="1" source="wdbdzwJytdkCPi4RzAZK-13" target="wdbdzwJytdkCPi4RzAZK-15">
          <mxGeometry relative="1" as="geometry" />
        </mxCell>
        <mxCell id="wdbdzwJytdkCPi4RzAZK-34" value="" style="edgeStyle=orthogonalEdgeStyle;rounded=0;orthogonalLoop=1;jettySize=auto;html=1;" edge="1" parent="1" source="wdbdzwJytdkCPi4RzAZK-13">
          <mxGeometry relative="1" as="geometry">
            <mxPoint x="480" y="680" as="targetPoint" />
          </mxGeometry>
        </mxCell>
        <mxCell id="wdbdzwJytdkCPi4RzAZK-13" value="number==3" style="rhombus;whiteSpace=wrap;html=1;" vertex="1" parent="1">
          <mxGeometry x="360" y="640" width="80" height="80" as="geometry" />
        </mxCell>
        <mxCell id="wdbdzwJytdkCPi4RzAZK-18" value="" style="edgeStyle=orthogonalEdgeStyle;rounded=0;orthogonalLoop=1;jettySize=auto;html=1;" edge="1" parent="1" source="wdbdzwJytdkCPi4RzAZK-15" target="wdbdzwJytdkCPi4RzAZK-17">
          <mxGeometry relative="1" as="geometry" />
        </mxCell>
        <mxCell id="wdbdzwJytdkCPi4RzAZK-36" value="" style="edgeStyle=orthogonalEdgeStyle;rounded=0;orthogonalLoop=1;jettySize=auto;html=1;" edge="1" parent="1" source="wdbdzwJytdkCPi4RzAZK-15">
          <mxGeometry relative="1" as="geometry">
            <mxPoint x="480" y="790" as="targetPoint" />
          </mxGeometry>
        </mxCell>
        <mxCell id="wdbdzwJytdkCPi4RzAZK-15" value="number==4" style="rhombus;whiteSpace=wrap;html=1;" vertex="1" parent="1">
          <mxGeometry x="360" y="750" width="80" height="80" as="geometry" />
        </mxCell>
        <mxCell id="wdbdzwJytdkCPi4RzAZK-20" value="" style="edgeStyle=orthogonalEdgeStyle;rounded=0;orthogonalLoop=1;jettySize=auto;html=1;" edge="1" parent="1" source="wdbdzwJytdkCPi4RzAZK-17" target="wdbdzwJytdkCPi4RzAZK-19">
          <mxGeometry relative="1" as="geometry" />
        </mxCell>
        <mxCell id="wdbdzwJytdkCPi4RzAZK-38" value="" style="edgeStyle=orthogonalEdgeStyle;rounded=0;orthogonalLoop=1;jettySize=auto;html=1;" edge="1" parent="1" source="wdbdzwJytdkCPi4RzAZK-17">
          <mxGeometry relative="1" as="geometry">
            <mxPoint x="480" y="910" as="targetPoint" />
          </mxGeometry>
        </mxCell>
        <mxCell id="wdbdzwJytdkCPi4RzAZK-17" value="number==5" style="rhombus;whiteSpace=wrap;html=1;" vertex="1" parent="1">
          <mxGeometry x="360" y="870" width="80" height="80" as="geometry" />
        </mxCell>
        <mxCell id="wdbdzwJytdkCPi4RzAZK-22" value="" style="edgeStyle=orthogonalEdgeStyle;rounded=0;orthogonalLoop=1;jettySize=auto;html=1;" edge="1" parent="1" source="wdbdzwJytdkCPi4RzAZK-19" target="wdbdzwJytdkCPi4RzAZK-21">
          <mxGeometry relative="1" as="geometry" />
        </mxCell>
        <mxCell id="wdbdzwJytdkCPi4RzAZK-40" value="" style="edgeStyle=orthogonalEdgeStyle;rounded=0;orthogonalLoop=1;jettySize=auto;html=1;" edge="1" parent="1" source="wdbdzwJytdkCPi4RzAZK-19">
          <mxGeometry relative="1" as="geometry">
            <mxPoint x="485" y="1030" as="targetPoint" />
          </mxGeometry>
        </mxCell>
        <mxCell id="wdbdzwJytdkCPi4RzAZK-19" value="number==6" style="rhombus;whiteSpace=wrap;html=1;" vertex="1" parent="1">
          <mxGeometry x="360" y="990" width="80" height="80" as="geometry" />
        </mxCell>
        <mxCell id="wdbdzwJytdkCPi4RzAZK-42" value="" style="edgeStyle=orthogonalEdgeStyle;rounded=0;orthogonalLoop=1;jettySize=auto;html=1;" edge="1" parent="1" source="wdbdzwJytdkCPi4RzAZK-21">
          <mxGeometry relative="1" as="geometry">
            <mxPoint x="485" y="1150" as="targetPoint" />
          </mxGeometry>
        </mxCell>
        <mxCell id="wdbdzwJytdkCPi4RzAZK-44" value="" style="edgeStyle=orthogonalEdgeStyle;rounded=0;orthogonalLoop=1;jettySize=auto;html=1;" edge="1" parent="1" source="wdbdzwJytdkCPi4RzAZK-21">
          <mxGeometry relative="1" as="geometry">
            <mxPoint x="400" y="1230" as="targetPoint" />
          </mxGeometry>
        </mxCell>
        <mxCell id="wdbdzwJytdkCPi4RzAZK-21" value="number==7" style="rhombus;whiteSpace=wrap;html=1;" vertex="1" parent="1">
          <mxGeometry x="360" y="1110" width="80" height="80" as="geometry" />
        </mxCell>
        <mxCell id="wdbdzwJytdkCPi4RzAZK-23" value="SI" style="text;html=1;align=center;verticalAlign=middle;resizable=0;points=[];autosize=1;strokeColor=none;fillColor=none;" vertex="1" parent="1">
          <mxGeometry x="440" y="415" width="30" height="30" as="geometry" />
        </mxCell>
        <mxCell id="wdbdzwJytdkCPi4RzAZK-24" value="&lt;span style=&quot;color: rgb(0, 0, 0); font-family: Helvetica; font-size: 12px; font-style: normal; font-variant-ligatures: normal; font-variant-caps: normal; font-weight: 400; letter-spacing: normal; orphans: 2; text-align: center; text-indent: 0px; text-transform: none; widows: 2; word-spacing: 0px; -webkit-text-stroke-width: 0px; white-space: nowrap; background-color: rgb(251, 251, 251); text-decoration-thickness: initial; text-decoration-style: initial; text-decoration-color: initial; display: inline !important; float: none;&quot;&gt;SI&lt;/span&gt;" style="text;whiteSpace=wrap;html=1;" vertex="1" parent="1">
          <mxGeometry x="430" y="520" width="40" height="30" as="geometry" />
        </mxCell>
        <mxCell id="wdbdzwJytdkCPi4RzAZK-25" value="&lt;span style=&quot;color: rgb(0, 0, 0); font-family: Helvetica; font-size: 12px; font-style: normal; font-variant-ligatures: normal; font-variant-caps: normal; font-weight: 400; letter-spacing: normal; orphans: 2; text-align: center; text-indent: 0px; text-transform: none; widows: 2; word-spacing: 0px; -webkit-text-stroke-width: 0px; white-space: nowrap; background-color: rgb(251, 251, 251); text-decoration-thickness: initial; text-decoration-style: initial; text-decoration-color: initial; display: inline !important; float: none;&quot;&gt;SI&lt;/span&gt;" style="text;whiteSpace=wrap;html=1;" vertex="1" parent="1">
          <mxGeometry x="430" y="650" width="40" height="20" as="geometry" />
        </mxCell>
        <mxCell id="wdbdzwJytdkCPi4RzAZK-26" value="&lt;span style=&quot;color: rgb(0, 0, 0); font-family: Helvetica; font-size: 12px; font-style: normal; font-variant-ligatures: normal; font-variant-caps: normal; font-weight: 400; letter-spacing: normal; orphans: 2; text-align: center; text-indent: 0px; text-transform: none; widows: 2; word-spacing: 0px; -webkit-text-stroke-width: 0px; white-space: nowrap; background-color: rgb(251, 251, 251); text-decoration-thickness: initial; text-decoration-style: initial; text-decoration-color: initial; display: inline !important; float: none;&quot;&gt;SI&lt;/span&gt;" style="text;whiteSpace=wrap;html=1;" vertex="1" parent="1">
          <mxGeometry x="430" y="760" width="40" height="20" as="geometry" />
        </mxCell>
        <mxCell id="wdbdzwJytdkCPi4RzAZK-27" value="&lt;span style=&quot;color: rgb(0, 0, 0); font-family: Helvetica; font-size: 12px; font-style: normal; font-variant-ligatures: normal; font-variant-caps: normal; font-weight: 400; letter-spacing: normal; orphans: 2; text-align: center; text-indent: 0px; text-transform: none; widows: 2; word-spacing: 0px; -webkit-text-stroke-width: 0px; white-space: nowrap; background-color: rgb(251, 251, 251); text-decoration-thickness: initial; text-decoration-style: initial; text-decoration-color: initial; display: inline !important; float: none;&quot;&gt;SI&lt;/span&gt;" style="text;whiteSpace=wrap;html=1;" vertex="1" parent="1">
          <mxGeometry x="430" y="870" width="40" height="20" as="geometry" />
        </mxCell>
        <mxCell id="wdbdzwJytdkCPi4RzAZK-28" value="&lt;span style=&quot;color: rgb(0, 0, 0); font-family: Helvetica; font-size: 12px; font-style: normal; font-variant-ligatures: normal; font-variant-caps: normal; font-weight: 400; letter-spacing: normal; orphans: 2; text-align: center; text-indent: 0px; text-transform: none; widows: 2; word-spacing: 0px; -webkit-text-stroke-width: 0px; white-space: nowrap; background-color: rgb(251, 251, 251); text-decoration-thickness: initial; text-decoration-style: initial; text-decoration-color: initial; display: inline !important; float: none;&quot;&gt;SI&lt;/span&gt;" style="text;whiteSpace=wrap;html=1;" vertex="1" parent="1">
          <mxGeometry x="440" y="1000" width="40" height="20" as="geometry" />
        </mxCell>
        <mxCell id="wdbdzwJytdkCPi4RzAZK-29" value="&lt;span style=&quot;color: rgb(0, 0, 0); font-family: Helvetica; font-size: 12px; font-style: normal; font-variant-ligatures: normal; font-variant-caps: normal; font-weight: 400; letter-spacing: normal; orphans: 2; text-align: center; text-indent: 0px; text-transform: none; widows: 2; word-spacing: 0px; -webkit-text-stroke-width: 0px; white-space: nowrap; background-color: rgb(251, 251, 251); text-decoration-thickness: initial; text-decoration-style: initial; text-decoration-color: initial; display: inline !important; float: none;&quot;&gt;SI&lt;/span&gt;" style="text;whiteSpace=wrap;html=1;" vertex="1" parent="1">
          <mxGeometry x="430" y="1110" width="40" height="30" as="geometry" />
        </mxCell>
        <mxCell id="wdbdzwJytdkCPi4RzAZK-55" value="" style="edgeStyle=orthogonalEdgeStyle;rounded=0;orthogonalLoop=1;jettySize=auto;html=1;" edge="1" parent="1" target="wdbdzwJytdkCPi4RzAZK-54">
          <mxGeometry relative="1" as="geometry">
            <mxPoint x="590" y="560" as="sourcePoint" />
          </mxGeometry>
        </mxCell>
        <mxCell id="wdbdzwJytdkCPi4RzAZK-57" value="" style="edgeStyle=orthogonalEdgeStyle;rounded=0;orthogonalLoop=1;jettySize=auto;html=1;" edge="1" parent="1" target="wdbdzwJytdkCPi4RzAZK-56">
          <mxGeometry relative="1" as="geometry">
            <mxPoint x="570" y="680" as="sourcePoint" />
          </mxGeometry>
        </mxCell>
        <mxCell id="wdbdzwJytdkCPi4RzAZK-59" value="" style="edgeStyle=orthogonalEdgeStyle;rounded=0;orthogonalLoop=1;jettySize=auto;html=1;" edge="1" parent="1" target="wdbdzwJytdkCPi4RzAZK-58">
          <mxGeometry relative="1" as="geometry">
            <mxPoint x="570" y="790" as="sourcePoint" />
          </mxGeometry>
        </mxCell>
        <mxCell id="wdbdzwJytdkCPi4RzAZK-61" value="" style="edgeStyle=orthogonalEdgeStyle;rounded=0;orthogonalLoop=1;jettySize=auto;html=1;" edge="1" parent="1" target="wdbdzwJytdkCPi4RzAZK-60">
          <mxGeometry relative="1" as="geometry">
            <mxPoint x="560" y="910" as="sourcePoint" />
          </mxGeometry>
        </mxCell>
        <mxCell id="wdbdzwJytdkCPi4RzAZK-63" value="" style="edgeStyle=orthogonalEdgeStyle;rounded=0;orthogonalLoop=1;jettySize=auto;html=1;" edge="1" parent="1" target="wdbdzwJytdkCPi4RzAZK-62">
          <mxGeometry relative="1" as="geometry">
            <mxPoint x="565" y="1030" as="sourcePoint" />
          </mxGeometry>
        </mxCell>
        <mxCell id="wdbdzwJytdkCPi4RzAZK-65" value="" style="edgeStyle=orthogonalEdgeStyle;rounded=0;orthogonalLoop=1;jettySize=auto;html=1;" edge="1" parent="1" target="wdbdzwJytdkCPi4RzAZK-64">
          <mxGeometry relative="1" as="geometry">
            <mxPoint x="555" y="1150" as="sourcePoint" />
          </mxGeometry>
        </mxCell>
        <mxCell id="wdbdzwJytdkCPi4RzAZK-67" value="" style="edgeStyle=orthogonalEdgeStyle;rounded=0;orthogonalLoop=1;jettySize=auto;html=1;" edge="1" parent="1" target="wdbdzwJytdkCPi4RzAZK-66">
          <mxGeometry relative="1" as="geometry">
            <mxPoint x="400" y="1280" as="sourcePoint" />
          </mxGeometry>
        </mxCell>
        <mxCell id="wdbdzwJytdkCPi4RzAZK-45" value="NO" style="text;html=1;align=center;verticalAlign=middle;resizable=0;points=[];autosize=1;strokeColor=none;fillColor=none;" vertex="1" parent="1">
          <mxGeometry x="340" y="480" width="40" height="30" as="geometry" />
        </mxCell>
        <mxCell id="wdbdzwJytdkCPi4RzAZK-46" value="NO" style="text;html=1;align=center;verticalAlign=middle;resizable=0;points=[];autosize=1;strokeColor=none;fillColor=none;" vertex="1" parent="1">
          <mxGeometry x="340" y="600" width="40" height="30" as="geometry" />
        </mxCell>
        <mxCell id="wdbdzwJytdkCPi4RzAZK-47" value="&lt;span style=&quot;color: rgb(0, 0, 0); font-family: Helvetica; font-size: 12px; font-style: normal; font-variant-ligatures: normal; font-variant-caps: normal; font-weight: 400; letter-spacing: normal; orphans: 2; text-align: center; text-indent: 0px; text-transform: none; widows: 2; word-spacing: 0px; -webkit-text-stroke-width: 0px; white-space: nowrap; background-color: rgb(251, 251, 251); text-decoration-thickness: initial; text-decoration-style: initial; text-decoration-color: initial; display: inline !important; float: none;&quot;&gt;NO&lt;/span&gt;" style="text;whiteSpace=wrap;html=1;" vertex="1" parent="1">
          <mxGeometry x="340" y="720" width="70" height="40" as="geometry" />
        </mxCell>
        <mxCell id="wdbdzwJytdkCPi4RzAZK-48" value="&lt;span style=&quot;color: rgb(0, 0, 0); font-family: Helvetica; font-size: 12px; font-style: normal; font-variant-ligatures: normal; font-variant-caps: normal; font-weight: 400; letter-spacing: normal; orphans: 2; text-align: center; text-indent: 0px; text-transform: none; widows: 2; word-spacing: 0px; -webkit-text-stroke-width: 0px; white-space: nowrap; background-color: rgb(251, 251, 251); text-decoration-thickness: initial; text-decoration-style: initial; text-decoration-color: initial; display: inline !important; float: none;&quot;&gt;NO&lt;/span&gt;" style="text;whiteSpace=wrap;html=1;" vertex="1" parent="1">
          <mxGeometry x="340" y="820" width="70" height="40" as="geometry" />
        </mxCell>
        <mxCell id="wdbdzwJytdkCPi4RzAZK-49" value="&lt;span style=&quot;color: rgb(0, 0, 0); font-family: Helvetica; font-size: 12px; font-style: normal; font-variant-ligatures: normal; font-variant-caps: normal; font-weight: 400; letter-spacing: normal; orphans: 2; text-align: center; text-indent: 0px; text-transform: none; widows: 2; word-spacing: 0px; -webkit-text-stroke-width: 0px; white-space: nowrap; background-color: rgb(251, 251, 251); text-decoration-thickness: initial; text-decoration-style: initial; text-decoration-color: initial; display: inline !important; float: none;&quot;&gt;NO&lt;/span&gt;" style="text;whiteSpace=wrap;html=1;" vertex="1" parent="1">
          <mxGeometry x="340" y="950" width="70" height="40" as="geometry" />
        </mxCell>
        <mxCell id="wdbdzwJytdkCPi4RzAZK-50" value="&lt;span style=&quot;color: rgb(0, 0, 0); font-family: Helvetica; font-size: 12px; font-style: normal; font-variant-ligatures: normal; font-variant-caps: normal; font-weight: 400; letter-spacing: normal; orphans: 2; text-align: center; text-indent: 0px; text-transform: none; widows: 2; word-spacing: 0px; -webkit-text-stroke-width: 0px; white-space: nowrap; background-color: rgb(251, 251, 251); text-decoration-thickness: initial; text-decoration-style: initial; text-decoration-color: initial; display: inline !important; float: none;&quot;&gt;NO&lt;/span&gt;" style="text;whiteSpace=wrap;html=1;" vertex="1" parent="1">
          <mxGeometry x="340" y="1070" width="70" height="40" as="geometry" />
        </mxCell>
        <mxCell id="wdbdzwJytdkCPi4RzAZK-51" value="&lt;span style=&quot;color: rgb(0, 0, 0); font-family: Helvetica; font-size: 12px; font-style: normal; font-variant-ligatures: normal; font-variant-caps: normal; font-weight: 400; letter-spacing: normal; orphans: 2; text-align: center; text-indent: 0px; text-transform: none; widows: 2; word-spacing: 0px; -webkit-text-stroke-width: 0px; white-space: nowrap; background-color: rgb(251, 251, 251); text-decoration-thickness: initial; text-decoration-style: initial; text-decoration-color: initial; display: inline !important; float: none;&quot;&gt;NO&lt;/span&gt;" style="text;whiteSpace=wrap;html=1;" vertex="1" parent="1">
          <mxGeometry x="340" y="1180" width="70" height="40" as="geometry" />
        </mxCell>
        <mxCell id="wdbdzwJytdkCPi4RzAZK-52" value="FIN" style="ellipse;whiteSpace=wrap;html=1;" vertex="1" parent="1">
          <mxGeometry x="630" y="410" width="80" height="80" as="geometry" />
        </mxCell>
        <mxCell id="wdbdzwJytdkCPi4RzAZK-54" value="FIN" style="ellipse;whiteSpace=wrap;html=1;" vertex="1" parent="1">
          <mxGeometry x="630" y="520" width="80" height="80" as="geometry" />
        </mxCell>
        <mxCell id="wdbdzwJytdkCPi4RzAZK-56" value="FIN" style="ellipse;whiteSpace=wrap;html=1;" vertex="1" parent="1">
          <mxGeometry x="630" y="640" width="80" height="80" as="geometry" />
        </mxCell>
        <mxCell id="wdbdzwJytdkCPi4RzAZK-58" value="FIN" style="ellipse;whiteSpace=wrap;html=1;" vertex="1" parent="1">
          <mxGeometry x="630" y="750" width="80" height="80" as="geometry" />
        </mxCell>
        <mxCell id="wdbdzwJytdkCPi4RzAZK-60" value="FIN" style="ellipse;whiteSpace=wrap;html=1;" vertex="1" parent="1">
          <mxGeometry x="630" y="870" width="80" height="80" as="geometry" />
        </mxCell>
        <mxCell id="wdbdzwJytdkCPi4RzAZK-62" value="FIN" style="ellipse;whiteSpace=wrap;html=1;" vertex="1" parent="1">
          <mxGeometry x="630" y="990" width="80" height="80" as="geometry" />
        </mxCell>
        <mxCell id="wdbdzwJytdkCPi4RzAZK-64" value="FIN" style="ellipse;whiteSpace=wrap;html=1;" vertex="1" parent="1">
          <mxGeometry x="630" y="1110" width="80" height="80" as="geometry" />
        </mxCell>
        <mxCell id="wdbdzwJytdkCPi4RzAZK-66" value="FIN" style="ellipse;whiteSpace=wrap;html=1;" vertex="1" parent="1">
          <mxGeometry x="360" y="1320" width="80" height="80" as="geometry" />
        </mxCell>
        <mxCell id="oWwa5mIUjVDydJ7BDGdp-1" value="OUTPUT&amp;nbsp;&lt;div&gt;&quot;Monday&quot;&lt;/div&gt;" style="shape=parallelogram;perimeter=parallelogramPerimeter;whiteSpace=wrap;html=1;fixedSize=1;" vertex="1" parent="1">
          <mxGeometry x="490" y="420" width="130" height="60" as="geometry" />
        </mxCell>
        <mxCell id="oWwa5mIUjVDydJ7BDGdp-2" value="OUTPUT&amp;nbsp;&lt;div&gt;&quot;Tuesday&quot;&lt;/div&gt;" style="shape=parallelogram;perimeter=parallelogramPerimeter;whiteSpace=wrap;html=1;fixedSize=1;" vertex="1" parent="1">
          <mxGeometry x="490" y="530" width="130" height="60" as="geometry" />
        </mxCell>
        <mxCell id="oWwa5mIUjVDydJ7BDGdp-3" value="OUTPUT&amp;nbsp;&lt;div&gt;&quot;Wednesday&quot;&lt;/div&gt;" style="shape=parallelogram;perimeter=parallelogramPerimeter;whiteSpace=wrap;html=1;fixedSize=1;" vertex="1" parent="1">
          <mxGeometry x="470" y="650" width="130" height="60" as="geometry" />
        </mxCell>
        <mxCell id="oWwa5mIUjVDydJ7BDGdp-4" value="OUTPUT&amp;nbsp;&lt;div&gt;&quot;Thursday&quot;&lt;/div&gt;" style="shape=parallelogram;perimeter=parallelogramPerimeter;whiteSpace=wrap;html=1;fixedSize=1;" vertex="1" parent="1">
          <mxGeometry x="470" y="760" width="130" height="60" as="geometry" />
        </mxCell>
        <mxCell id="oWwa5mIUjVDydJ7BDGdp-5" value="OUTPUT&amp;nbsp;&lt;div&gt;&quot;Friday&quot;&lt;/div&gt;" style="shape=parallelogram;perimeter=parallelogramPerimeter;whiteSpace=wrap;html=1;fixedSize=1;" vertex="1" parent="1">
          <mxGeometry x="470" y="880" width="130" height="60" as="geometry" />
        </mxCell>
        <mxCell id="oWwa5mIUjVDydJ7BDGdp-6" value="OUTPUT&amp;nbsp;&lt;div&gt;&quot;Saturday&quot;&lt;/div&gt;" style="shape=parallelogram;perimeter=parallelogramPerimeter;whiteSpace=wrap;html=1;fixedSize=1;" vertex="1" parent="1">
          <mxGeometry x="470" y="1010" width="130" height="60" as="geometry" />
        </mxCell>
        <mxCell id="oWwa5mIUjVDydJ7BDGdp-7" value="OUTPUT&amp;nbsp;&lt;div&gt;&quot;Sunday&quot;&lt;/div&gt;" style="shape=parallelogram;perimeter=parallelogramPerimeter;whiteSpace=wrap;html=1;fixedSize=1;" vertex="1" parent="1">
          <mxGeometry x="470" y="1130" width="130" height="60" as="geometry" />
        </mxCell>
        <mxCell id="oWwa5mIUjVDydJ7BDGdp-10" value="OUTPUT&amp;nbsp;&lt;div&gt;&quot;Invalid input&quot;&lt;/div&gt;" style="shape=parallelogram;perimeter=parallelogramPerimeter;whiteSpace=wrap;html=1;fixedSize=1;" vertex="1" parent="1">
          <mxGeometry x="340" y="1230" width="120" height="60" as="geometry" />
        </mxCell>
      </root>
    </mxGraphModel>
  </diagram>
</mxfile>
